<svg xmlns="http://www.w3.org/2000/svg" xmlns:xlink="http://www.w3.org/1999/xlink" version="1.1" width="120" height="120" viewBox="0 0 256 256" xml:space="preserve">

<defs>
</defs>
<g style="stroke: none; stroke-width: 0; stroke-dasharray: none; stroke-linecap: butt; stroke-linejoin: miter; stroke-miterlimit: 10; fill: none; fill-rule: nonzero; opacity: 1;" transform="translate(1.4065934065934016 1.4065934065934016) scale(2.81 2.81)" >
	<path d="M 18.03 16.786 c -3.234 0 -5.865 -2.631 -5.865 -5.865 s 2.631 -5.865 5.865 -5.865 s 5.865 2.631 5.865 5.865 S 21.264 16.786 18.03 16.786 z M 18.03 7.056 c -2.131 0 -3.865 1.734 -3.865 3.865 c 0 2.131 1.734 3.865 3.865 3.865 c 2.131 0 3.865 -1.734 3.865 -3.865 C 21.895 8.79 20.161 7.056 18.03 7.056 z" style="stroke: none; stroke-width: 1; stroke-dasharray: none; stroke-linecap: butt; stroke-linejoin: miter; stroke-miterlimit: 10; fill: rgb(0,35,86); fill-rule: nonzero; opacity: 1;" transform=" matrix(1 0 0 1 0 0) " stroke-linecap="round" />
	<path d="M 89 85.067 c -0.246 0 -0.491 -0.09 -0.685 -0.271 c -4.598 -4.318 -12.908 -7.798 -23.4 -9.799 c -0.542 -0.104 -0.898 -0.627 -0.795 -1.17 c 0.104 -0.542 0.62 -0.896 1.17 -0.795 c 10.859 2.071 19.523 5.731 24.395 10.307 c 0.402 0.378 0.423 1.011 0.044 1.413 C 89.532 84.962 89.267 85.067 89 85.067 z" style="stroke: none; stroke-width: 1; stroke-dasharray: none; stroke-linecap: butt; stroke-linejoin: miter; stroke-miterlimit: 10; fill: rgb(0,35,86); fill-rule: nonzero; opacity: 1;" transform=" matrix(1 0 0 1 0 0) " stroke-linecap="round" />
	<path d="M 54.45 73.582 c -0.027 0 -0.055 -0.001 -0.083 -0.003 c -1.262 -0.104 -2.56 -0.188 -3.859 -0.25 c -0.552 -0.026 -0.978 -0.495 -0.951 -1.047 s 0.503 -0.975 1.047 -0.951 c 1.321 0.063 2.644 0.148 3.928 0.254 c 0.551 0.046 0.96 0.528 0.915 1.079 C 55.402 73.187 54.966 73.582 54.45 73.582 z" style="stroke: none; stroke-width: 1; stroke-dasharray: none; stroke-linecap: butt; stroke-linejoin: miter; stroke-miterlimit: 10; fill: rgb(0,35,86); fill-rule: nonzero; opacity: 1;" transform=" matrix(1 0 0 1 0 0) " stroke-linecap="round" />
	<path d="M 38.908 73.356 c -0.529 0 -0.97 -0.415 -0.998 -0.949 c -0.028 -0.551 0.396 -1.021 0.947 -1.05 c 0.519 -0.026 1.04 -0.051 1.563 -0.07 c 0.725 -0.028 1.456 -0.051 2.191 -0.065 c 0.572 0.003 1.009 0.428 1.02 0.979 c 0.011 0.553 -0.428 1.009 -0.98 1.021 c -0.723 0.015 -1.441 0.035 -2.154 0.063 c -0.517 0.02 -1.028 0.044 -1.538 0.07 C 38.943 73.356 38.926 73.356 38.908 73.356 z" style="stroke: none; stroke-width: 1; stroke-dasharray: none; stroke-linecap: butt; stroke-linejoin: miter; stroke-miterlimit: 10; fill: rgb(0,35,86); fill-rule: nonzero; opacity: 1;" transform=" matrix(1 0 0 1 0 0) " stroke-linecap="round" />
	<path d="M 1 85.067 c -0.266 0 -0.532 -0.105 -0.729 -0.315 c -0.378 -0.402 -0.358 -1.035 0.044 -1.413 c 5.477 -5.145 15.879 -9.155 28.539 -11.002 c 0.546 -0.088 1.054 0.298 1.134 0.845 c 0.08 0.547 -0.299 1.055 -0.845 1.134 c -12.265 1.79 -22.273 5.609 -27.459 10.48 C 1.492 84.978 1.246 85.067 1 85.067 z" style="stroke: none; stroke-width: 1; stroke-dasharray: none; stroke-linecap: butt; stroke-linejoin: miter; stroke-miterlimit: 10; fill: rgb(0,35,86); fill-rule: nonzero; opacity: 1;" transform=" matrix(1 0 0 1 0 0) " stroke-linecap="round" />
	<path d="M 55.87 53.898 c -0.423 0 -0.815 -0.27 -0.952 -0.694 c -0.169 -0.525 0.12 -1.089 0.646 -1.258 l 17.722 -5.697 l -3.61 -11.23 l -26.309 8.459 l 0.915 2.845 c 0.169 0.525 -0.12 1.089 -0.646 1.258 c -0.526 0.167 -1.089 -0.12 -1.258 -0.646 l -1.221 -3.796 c -0.169 -0.526 0.12 -1.089 0.646 -1.258 l 28.213 -9.072 c 0.252 -0.081 0.526 -0.059 0.763 0.063 c 0.235 0.121 0.414 0.331 0.495 0.583 l 4.223 13.134 c 0.169 0.525 -0.12 1.089 -0.646 1.258 l -18.674 6.004 C 56.074 53.883 55.972 53.898 55.87 53.898 z" style="stroke: none; stroke-width: 1; stroke-dasharray: none; stroke-linecap: butt; stroke-linejoin: miter; stroke-miterlimit: 10; fill: rgb(248,134,15); fill-rule: nonzero; opacity: 1;" transform=" matrix(1 0 0 1 0 0) " stroke-linecap="round" />
	<path d="M 29.525 60.479 c -0.157 0 -0.314 -0.037 -0.457 -0.11 c -0.236 -0.121 -0.414 -0.331 -0.496 -0.584 l -3.121 -9.706 c -0.169 -0.525 0.12 -1.089 0.646 -1.258 l 16.255 -5.227 c 0.525 -0.171 1.088 0.121 1.258 0.646 c 0.169 0.526 -0.12 1.089 -0.646 1.258 l -15.303 4.92 l 2.508 7.803 l 6.718 -2.161 c 0.525 -0.167 1.088 0.12 1.258 0.646 c 0.169 0.526 -0.12 1.09 -0.646 1.259 l -7.67 2.467 C 29.731 60.464 29.628 60.479 29.525 60.479 z" style="stroke: none; stroke-width: 1; stroke-dasharray: none; stroke-linecap: butt; stroke-linejoin: miter; stroke-miterlimit: 10; fill: rgb(248,134,15); fill-rule: nonzero; opacity: 1;" transform=" matrix(1 0 0 1 0 0) " stroke-linecap="round" />
	<path d="M 17.525 62.533 c -0.423 0 -0.815 -0.27 -0.952 -0.694 l -2.069 -6.436 c -0.081 -0.252 -0.059 -0.526 0.063 -0.763 c 0.121 -0.235 0.331 -0.414 0.583 -0.495 l 11.475 -3.689 c 0.527 -0.167 1.089 0.12 1.258 0.646 c 0.169 0.525 -0.12 1.089 -0.646 1.258 l -10.522 3.383 l 1.457 4.532 l 10.522 -3.384 c 0.526 -0.168 1.089 0.12 1.258 0.646 c 0.169 0.525 -0.12 1.089 -0.646 1.258 l -11.474 3.689 C 17.729 62.518 17.626 62.533 17.525 62.533 z" style="stroke: none; stroke-width: 1; stroke-dasharray: none; stroke-linecap: butt; stroke-linejoin: miter; stroke-miterlimit: 10; fill: rgb(248,134,15); fill-rule: nonzero; opacity: 1;" transform=" matrix(1 0 0 1 0 0) " stroke-linecap="round" />
	<path d="M 46.584 61.81 c -0.919 0 -1.832 -0.219 -2.673 -0.65 c -1.394 -0.716 -2.425 -1.932 -2.905 -3.423 s -0.35 -3.08 0.366 -4.474 c 0.716 -1.394 1.931 -2.426 3.422 -2.905 c 3.079 -0.986 6.389 0.71 7.379 3.789 c 0.479 1.491 0.35 3.08 -0.366 4.474 c -0.715 1.394 -1.931 2.426 -3.423 2.905 C 47.794 61.715 47.188 61.81 46.584 61.81 z M 46.587 52.076 c -0.391 0 -0.789 0.06 -1.18 0.186 c -0.983 0.315 -1.784 0.996 -2.255 1.914 c -0.471 0.919 -0.557 1.966 -0.241 2.948 v 0.001 c 0.316 0.982 0.996 1.783 1.914 2.255 c 0.92 0.472 1.967 0.558 2.949 0.241 c 0.982 -0.315 1.783 -0.996 2.255 -1.914 c 0.472 -0.919 0.558 -1.966 0.241 -2.949 C 49.743 53.121 48.222 52.076 46.587 52.076 z" style="stroke: none; stroke-width: 1; stroke-dasharray: none; stroke-linecap: butt; stroke-linejoin: miter; stroke-miterlimit: 10; fill: rgb(0,35,86); fill-rule: nonzero; opacity: 1;" transform=" matrix(1 0 0 1 0 0) " stroke-linecap="round" />
	<path d="M 46.59 79.991 c -0.553 0 -1 -0.447 -1 -1 v -14.01 c 0 -0.553 0.447 -1 1 -1 s 1 0.447 1 1 v 14.01 C 47.59 79.544 47.143 79.991 46.59 79.991 z" style="stroke: none; stroke-width: 1; stroke-dasharray: none; stroke-linecap: butt; stroke-linejoin: miter; stroke-miterlimit: 10; fill: rgb(0,35,86); fill-rule: nonzero; opacity: 1;" transform=" matrix(1 0 0 1 0 0) " stroke-linecap="round" />
	<path d="M 29.616 79.991 c -0.206 0 -0.414 -0.063 -0.592 -0.194 c -0.445 -0.328 -0.54 -0.954 -0.212 -1.398 l 11.362 -15.43 c 0.327 -0.444 0.955 -0.539 1.398 -0.213 c 0.445 0.328 0.54 0.954 0.212 1.398 l -11.362 15.43 C 30.227 79.851 29.923 79.991 29.616 79.991 z" style="stroke: none; stroke-width: 1; stroke-dasharray: none; stroke-linecap: butt; stroke-linejoin: miter; stroke-miterlimit: 10; fill: rgb(0,35,86); fill-rule: nonzero; opacity: 1;" transform=" matrix(1 0 0 1 0 0) " stroke-linecap="round" />
	<path d="M 64.081 79.991 c -0.308 0 -0.61 -0.141 -0.807 -0.407 l -11.361 -15.43 c -0.327 -0.444 -0.232 -1.07 0.213 -1.398 c 0.446 -0.325 1.07 -0.231 1.398 0.213 l 11.361 15.43 c 0.327 0.444 0.232 1.07 -0.213 1.398 C 64.494 79.928 64.287 79.991 64.081 79.991 z" style="stroke: none; stroke-width: 1; stroke-dasharray: none; stroke-linecap: butt; stroke-linejoin: miter; stroke-miterlimit: 10; fill: rgb(0,35,86); fill-rule: nonzero; opacity: 1;" transform=" matrix(1 0 0 1 0 0) " stroke-linecap="round" />
	<path d="M 10.638 40.482 H 9.332 c -0.552 0 -1 -0.448 -1 -1 s 0.448 -1 1 -1 h 1.307 c 0.552 0 1 0.448 1 1 S 11.19 40.482 10.638 40.482 z" style="stroke: none; stroke-width: 1; stroke-dasharray: none; stroke-linecap: butt; stroke-linejoin: miter; stroke-miterlimit: 10; fill: rgb(248,134,15); fill-rule: nonzero; opacity: 1;" transform=" matrix(1 0 0 1 0 0) " stroke-linecap="round" />
	<path d="M 17.185 40.482 h -1.306 c -0.552 0 -1 -0.448 -1 -1 s 0.448 -1 1 -1 h 1.306 c 0.552 0 1 0.448 1 1 S 17.737 40.482 17.185 40.482 z" style="stroke: none; stroke-width: 1; stroke-dasharray: none; stroke-linecap: butt; stroke-linejoin: miter; stroke-miterlimit: 10; fill: rgb(248,134,15); fill-rule: nonzero; opacity: 1;" transform=" matrix(1 0 0 1 0 0) " stroke-linecap="round" />
	<path d="M 13.258 37.862 c -0.552 0 -1 -0.448 -1 -1 v -1.307 c 0 -0.552 0.448 -1 1 -1 s 1 0.448 1 1 v 1.307 C 14.258 37.414 13.811 37.862 13.258 37.862 z" style="stroke: none; stroke-width: 1; stroke-dasharray: none; stroke-linecap: butt; stroke-linejoin: miter; stroke-miterlimit: 10; fill: rgb(248,134,15); fill-rule: nonzero; opacity: 1;" transform=" matrix(1 0 0 1 0 0) " stroke-linecap="round" />
	<path d="M 13.258 44.409 c -0.552 0 -1 -0.448 -1 -1 v -1.306 c 0 -0.552 0.448 -1 1 -1 s 1 0.448 1 1 v 1.306 C 14.258 43.961 13.811 44.409 13.258 44.409 z" style="stroke: none; stroke-width: 1; stroke-dasharray: none; stroke-linecap: butt; stroke-linejoin: miter; stroke-miterlimit: 10; fill: rgb(248,134,15); fill-rule: nonzero; opacity: 1;" transform=" matrix(1 0 0 1 0 0) " stroke-linecap="round" />
	<path d="M 79.85 6.93 c -0.13 0 -0.26 -0.02 -0.39 -0.07 c -0.12 -0.05 -0.23 -0.13 -0.32 -0.22 c -0.09 -0.09 -0.17 -0.2 -0.22 -0.33 c -0.05 -0.12 -0.07 -0.25 -0.07 -0.38 c 0 -0.26 0.101 -0.52 0.29 -0.7 c 0.23 -0.24 0.57 -0.34 0.9 -0.28 c 0.069 0.02 0.13 0.03 0.189 0.06 c 0.061 0.02 0.12 0.06 0.17 0.09 c 0.061 0.04 0.11 0.08 0.15 0.13 c 0.19 0.18 0.3 0.44 0.3 0.7 c 0 0.13 -0.03 0.26 -0.08 0.38 c -0.05 0.13 -0.12 0.24 -0.22 0.33 C 80.37 6.83 80.109 6.93 79.85 6.93 z" style="stroke: none; stroke-width: 1; stroke-dasharray: none; stroke-linecap: butt; stroke-linejoin: miter; stroke-miterlimit: 10; fill: rgb(248,134,15); fill-rule: nonzero; opacity: 1;" transform=" matrix(1 0 0 1 0 0) " stroke-linecap="round" />
	<path d="M 40.185 24.603 h -1.306 c -0.552 0 -1 -0.448 -1 -1 s 0.448 -1 1 -1 h 1.306 c 0.552 0 1 0.448 1 1 S 40.737 24.603 40.185 24.603 z" style="stroke: none; stroke-width: 1; stroke-dasharray: none; stroke-linecap: butt; stroke-linejoin: miter; stroke-miterlimit: 10; fill: rgb(248,134,15); fill-rule: nonzero; opacity: 1;" transform=" matrix(1 0 0 1 0 0) " stroke-linecap="round" />
	<path d="M 46.731 24.603 h -1.306 c -0.552 0 -1 -0.448 -1 -1 s 0.448 -1 1 -1 h 1.306 c 0.553 0 1 0.448 1 1 S 47.284 24.603 46.731 24.603 z" style="stroke: none; stroke-width: 1; stroke-dasharray: none; stroke-linecap: butt; stroke-linejoin: miter; stroke-miterlimit: 10; fill: rgb(248,134,15); fill-rule: nonzero; opacity: 1;" transform=" matrix(1 0 0 1 0 0) " stroke-linecap="round" />
	<path d="M 42.805 21.982 c -0.552 0 -1 -0.448 -1 -1 v -1.307 c 0 -0.552 0.448 -1 1 -1 s 1 0.448 1 1 v 1.307 C 43.805 21.535 43.357 21.982 42.805 21.982 z" style="stroke: none; stroke-width: 1; stroke-dasharray: none; stroke-linecap: butt; stroke-linejoin: miter; stroke-miterlimit: 10; fill: rgb(248,134,15); fill-rule: nonzero; opacity: 1;" transform=" matrix(1 0 0 1 0 0) " stroke-linecap="round" />
	<path d="M 42.805 28.53 c -0.552 0 -1 -0.448 -1 -1 v -1.307 c 0 -0.552 0.448 -1 1 -1 s 1 0.448 1 1 v 1.307 C 43.805 28.082 43.357 28.53 42.805 28.53 z" style="stroke: none; stroke-width: 1; stroke-dasharray: none; stroke-linecap: butt; stroke-linejoin: miter; stroke-miterlimit: 10; fill: rgb(248,134,15); fill-rule: nonzero; opacity: 1;" transform=" matrix(1 0 0 1 0 0) " stroke-linecap="round" />
	<path d="M 2.66 27.56 c -0.06 0 -0.13 -0.01 -0.19 -0.02 c -0.07 -0.02 -0.13 -0.04 -0.19 -0.06 c -0.06 -0.03 -0.12 -0.06 -0.17 -0.09 C 2.05 27.35 2 27.31 1.95 27.26 c -0.09 -0.09 -0.16 -0.2 -0.21 -0.32 c -0.05 -0.13 -0.08 -0.25 -0.08 -0.39 c 0 -0.26 0.11 -0.52 0.29 -0.7 c 0.05 -0.05 0.1 -0.09 0.16 -0.13 c 0.05 -0.03 0.11 -0.06 0.17 -0.09 c 0.06 -0.02 0.12 -0.04 0.19 -0.06 c 0.19 -0.04 0.39 -0.01 0.57 0.06 c 0.13 0.05 0.24 0.12 0.33 0.22 c 0.04 0.04 0.09 0.09 0.12 0.15 c 0.04 0.05 0.07 0.11 0.1 0.17 c 0.02 0.06 0.04 0.12 0.05 0.19 c 0.02 0.06 0.02 0.13 0.02 0.19 c 0 0.14 -0.02 0.26 -0.07 0.39 c -0.06 0.12 -0.13 0.23 -0.22 0.32 c -0.09 0.09 -0.2 0.17 -0.33 0.22 C 2.92 27.53 2.79 27.56 2.66 27.56 z" style="stroke: none; stroke-width: 1; stroke-dasharray: none; stroke-linecap: butt; stroke-linejoin: miter; stroke-miterlimit: 10; fill: rgb(248,134,15); fill-rule: nonzero; opacity: 1;" transform=" matrix(1 0 0 1 0 0) " stroke-linecap="round" />
	<path d="M 8.14 68.62 c -0.13 0 -0.26 -0.03 -0.38 -0.08 s -0.23 -0.12 -0.33 -0.21 c -0.19 -0.19 -0.29 -0.44 -0.29 -0.71 c 0 -0.13 0.03 -0.261 0.08 -0.38 c 0.05 -0.12 0.12 -0.23 0.21 -0.33 c 0.28 -0.28 0.72 -0.37 1.09 -0.21 c 0.13 0.05 0.23 0.119 0.33 0.21 c 0.09 0.1 0.16 0.21 0.21 0.33 c 0.06 0.119 0.08 0.25 0.08 0.38 c 0 0.27 -0.1 0.52 -0.29 0.71 C 8.66 68.52 8.41 68.62 8.14 68.62 z" style="stroke: none; stroke-width: 1; stroke-dasharray: none; stroke-linecap: butt; stroke-linejoin: miter; stroke-miterlimit: 10; fill: rgb(248,134,15); fill-rule: nonzero; opacity: 1;" transform=" matrix(1 0 0 1 0 0) " stroke-linecap="round" />
	<path d="M 81.46 59.58 c -0.13 0 -0.26 -0.021 -0.38 -0.07 c -0.12 -0.06 -0.23 -0.13 -0.32 -0.22 c -0.1 -0.101 -0.17 -0.21 -0.22 -0.33 s -0.08 -0.25 -0.08 -0.38 c 0 -0.261 0.109 -0.521 0.3 -0.71 c 0.37 -0.37 1.04 -0.37 1.41 0 c 0.18 0.189 0.29 0.449 0.29 0.71 c 0 0.27 -0.101 0.52 -0.29 0.71 c -0.09 0.09 -0.2 0.16 -0.32 0.22 C 81.729 59.56 81.6 59.58 81.46 59.58 z" style="stroke: none; stroke-width: 1; stroke-dasharray: none; stroke-linecap: butt; stroke-linejoin: miter; stroke-miterlimit: 10; fill: rgb(248,134,15); fill-rule: nonzero; opacity: 1;" transform=" matrix(1 0 0 1 0 0) " stroke-linecap="round" />
	<path d="M 57.75 9.95 c -0.26 0 -0.521 -0.11 -0.71 -0.3 c -0.181 -0.18 -0.29 -0.44 -0.29 -0.7 c 0 -0.14 0.03 -0.26 0.08 -0.39 c 0.05 -0.12 0.12 -0.23 0.21 -0.32 c 0.37 -0.37 1.04 -0.37 1.42 0 c 0.09 0.09 0.16 0.2 0.21 0.32 c 0.05 0.13 0.08 0.25 0.08 0.39 c 0 0.13 -0.03 0.26 -0.08 0.38 c -0.05 0.12 -0.12 0.23 -0.21 0.32 C 58.27 9.84 58.01 9.95 57.75 9.95 z" style="stroke: none; stroke-width: 1; stroke-dasharray: none; stroke-linecap: butt; stroke-linejoin: miter; stroke-miterlimit: 10; fill: rgb(248,134,15); fill-rule: nonzero; opacity: 1;" transform=" matrix(1 0 0 1 0 0) " stroke-linecap="round" />
	<path d="M 81.463 28.881 c -3.234 0 -5.865 -2.631 -5.865 -5.865 s 2.631 -5.865 5.865 -5.865 s 5.865 2.631 5.865 5.865 S 84.697 28.881 81.463 28.881 z M 81.463 19.15 c -2.131 0 -3.865 1.734 -3.865 3.865 s 1.734 3.865 3.865 3.865 s 3.865 -1.734 3.865 -3.865 S 83.594 19.15 81.463 19.15 z" style="stroke: none; stroke-width: 1; stroke-dasharray: none; stroke-linecap: butt; stroke-linejoin: miter; stroke-miterlimit: 10; fill: rgb(0,35,86); fill-rule: nonzero; opacity: 1;" transform=" matrix(1 0 0 1 0 0) " stroke-linecap="round" />
	<path d="M 46.59 56.939 c -0.271 0 -0.521 -0.1 -0.71 -0.29 c -0.19 -0.189 -0.29 -0.439 -0.29 -0.71 c 0 -0.26 0.11 -0.52 0.29 -0.71 c 0.229 -0.229 0.58 -0.33 0.9 -0.27 c 0.069 0.01 0.13 0.03 0.189 0.06 c 0.061 0.021 0.12 0.05 0.18 0.09 c 0.051 0.04 0.101 0.08 0.15 0.12 c 0.18 0.19 0.29 0.45 0.29 0.71 c 0 0.271 -0.11 0.521 -0.29 0.71 C 47.109 56.84 46.859 56.939 46.59 56.939 z" style="stroke: none; stroke-width: 1; stroke-dasharray: none; stroke-linecap: butt; stroke-linejoin: miter; stroke-miterlimit: 10; fill: rgb(0,35,86); fill-rule: nonzero; opacity: 1;" transform=" matrix(1 0 0 1 0 0) " stroke-linecap="round" />
</g>
</svg>